<?xml version="1.0" standalone="no"?>
<!DOCTYPE svg PUBLIC "-//W3C//DTD SVG 20010904//EN"
 "http://www.w3.org/TR/2001/REC-SVG-20010904/DTD/svg10.dtd">
<svg version="1.0" xmlns="http://www.w3.org/2000/svg"
 width="700.000000pt" height="700.000000pt" viewBox="0 0 700.000000 700.000000"
 preserveAspectRatio="xMidYMid meet">
<metadata>
Created by potrace 1.14, written by Peter Selinger 2001-2017
</metadata>
<g transform="translate(0.000000,700.000000) scale(0.100000,-0.100000)"
fill="#000000" stroke="none">
<path d="M3746 6122 c-2 -1 -12 -4 -23 -6 -46 -9 -95 -38 -135 -78 -35 -35
-91 -139 -301 -561 -141 -284 -261 -517 -265 -517 -4 -1 -308 -2 -677 -3 -667
-3 -670 -3 -716 -25 -93 -44 -108 -70 -440 -735 l-312 -623 0 -73 -1 -72 316
-632 c186 -373 327 -644 344 -661 44 -43 94 -72 146 -83 29 -6 298 -11 680
-11 348 0 641 -1 650 -1 13 -1 88 -142 283 -530 239 -479 269 -533 307 -563
39 -31 86 -56 128 -66 8 -2 357 -5 775 -6 534 -2 775 1 810 9 63 14 123 52
162 102 38 48 619 1210 636 1272 14 50 15 86 3 141 -5 19 -128 274 -274 567
l-266 532 267 535 c147 294 270 552 275 573 9 39 8 87 -3 132 -11 48 -617
1253 -648 1288 -35 40 -98 78 -147 89 -31 7 -1568 13 -1574 6z m1540 -1018
l221 -438 -219 -438 -219 -438 -547 0 -548 0 -217 433 c-119 238 -217 438
-217 445 0 6 97 205 215 441 l215 430 62 3 c35 2 281 2 548 2 l485 -2 221
-438z m-2264 -733 c4 0 106 -197 226 -436 l218 -435 -219 -438 -220 -437 -548
0 -548 0 -219 438 -219 437 216 434 c119 240 223 436 231 438 13 3 1064 2
1082 -1z m2266 -1599 l219 -438 -218 -437 -219 -437 -78 0 c-119 -1 -741 -1
-889 0 l-133 0 -218 436 -218 436 220 438 219 439 548 0 549 0 218 -437z"/>
</g>
</svg>
